# xmcd
#
# Track frame offsets:
#	150
#	13472
#	28785
#	45550
#	62280
#	76057
#	91704
#	107965
#	123204
#	141842
#	156070
#	169430
#	181027
#	195225
#
# Disc length: 2787 seconds
#
# Revision: 1
# Processed by: cddbd v1.4PL0 Copyright (c) Steve Scherf et al.
# Submitted via: audiograbber 1.80
#
DISCID=a80ae10e
DTITLE=South Mountain - I Believe In Country Music
DYEAR=1900
DGENRE=
TTITLE0=I Believe In Country Music
TTITLE1=Writing On The Wall
TTITLE2=I Stood You Learning
TTITLE3=Too Much To Do
TTITLE4=Memories
TTITLE5=If These Walls Could Talk
TTITLE6=How Did I Let It Come To This
TTITLE7=Where Does The Good Times Go
TTITLE8=Black Diamond String
TTITLE9=Please Don't Tell Me How The Story Ends
TTITLE10=Between Your Heart And Mine
TTITLE11=Down Home Deluxe
TTITLE12=When The Heart Talks
TTITLE13=Red Roses, White Satin, Blue Memories
EXTD=
EXTT0=
EXTT1=
EXTT2=
EXTT3=
EXTT4=
EXTT5=
EXTT6=
EXTT7=
EXTT8=
EXTT9=
EXTT10=
EXTT11=
EXTT12=
EXTT13=
PLAYORDER=
